<svg width="141" height="161" viewBox="0 0 141 161" fill="none" xmlns="http://www.w3.org/2000/svg">
<path d="M46.1133 65.3909V95.4172L70.1963 109.322L94.2793 95.4172V65.3909L70.1963 51.4856L46.1133 65.3909ZM104.279 97.1496C104.279 99.6504 102.945 101.962 100.779 103.212L73.6963 118.848C71.5305 120.098 68.8621 120.098 66.6963 118.848L46.1133 106.964V129.95L70.0703 142.415L122.393 112.207V48.5998L70.1963 18.4631L18 48.5998V79.1858L36.1133 89.6438V63.6584C36.1133 61.1576 37.4476 58.8464 39.6133 57.5959L66.6963 41.9602L66.9004 41.8469C68.9596 40.7476 71.433 40.7476 73.4922 41.8469L73.6963 41.9602L100.779 57.5959C102.945 58.8464 104.279 61.1576 104.279 63.6584V97.1496ZM132.393 113.941C132.393 116.441 131.058 118.752 128.893 120.002L73.6465 151.899C71.5754 153.094 69.0366 153.151 66.915 152.047L39.8828 137.982C37.5667 136.777 36.1133 134.383 36.1133 131.772V101.191L11.5 86.9807C9.3342 85.7303 8.00001 83.419 8 80.9182V46.8674C8.00008 44.3667 9.33436 42.0563 11.5 40.8059L66.6963 8.93773L66.9004 8.82445C68.9596 7.72519 71.433 7.72518 73.4922 8.82445L73.6963 8.93773L128.893 40.8059C131.058 42.0563 132.392 44.3667 132.393 46.8674V113.941Z" fill="black"/>
</svg>
