<svg width="1117" height="145" viewBox="0 0 1117 145" fill="none" xmlns="http://www.w3.org/2000/svg">
<path d="M38.1133 57.3909V87.4172L62.1963 101.322L86.2793 87.4172V57.3909L62.1963 43.4856L38.1133 57.3909ZM96.2793 89.1496C96.2793 91.6504 94.945 93.9617 92.7793 95.2121L65.6963 110.848C63.5305 112.098 60.8621 112.098 58.6963 110.848L38.1133 98.9641V121.95L62.0703 134.415L114.393 104.207V40.5998L62.1963 10.4631L10 40.5998V71.1858L28.1133 81.6438V55.6584C28.1133 53.1576 29.4476 50.8464 31.6133 49.5959L58.6963 33.9602L58.9004 33.8469C60.9596 32.7476 63.433 32.7476 65.4922 33.8469L65.6963 33.9602L92.7793 49.5959C94.945 50.8464 96.2793 53.1576 96.2793 55.6584V89.1496ZM124.393 105.941C124.393 108.441 123.058 110.752 120.893 112.002L65.6465 143.899C63.5754 145.094 61.0366 145.151 58.915 144.047L31.8828 129.982C29.5667 128.777 28.1133 126.383 28.1133 123.772V93.1907L3.5 78.9807C1.3342 77.7303 1.35674e-05 75.419 0 72.9182V38.8674C8.41132e-05 36.3667 1.33436 34.0563 3.5 32.8059L58.6963 0.937728L58.9004 0.824447C60.9596 -0.274814 63.433 -0.274817 65.4922 0.824447L65.6963 0.937728L120.893 32.8059C123.058 34.0563 124.392 36.3667 124.393 38.8674V105.941Z" fill="white"/>
<path d="M1092.53 108.603C1079.05 108.603 1070.35 102.175 1066.09 93.7766L1077.91 86.9337C1081.02 92.014 1085.07 95.7465 1092.22 95.7465C1098.24 95.7465 1102.07 92.7398 1102.07 88.5926C1102.07 83.616 1098.13 81.8534 1091.5 78.9504L1087.87 77.3952C1077.4 72.9369 1070.45 67.3382 1070.45 55.5187C1070.45 44.6323 1078.74 36.3379 1091.7 36.3379C1100.93 36.3379 1107.57 39.552 1112.34 47.95L1101.03 55.2076C1098.55 50.7494 1095.85 48.9868 1091.7 48.9868C1087.45 48.9868 1084.76 51.6825 1084.76 55.2076C1084.76 59.5622 1087.45 61.3248 1093.67 64.0204L1097.3 65.5757C1109.64 70.8633 1116.59 76.2547 1116.59 88.3853C1116.59 101.449 1106.32 108.603 1092.53 108.603Z" fill="white"/>
<path d="M982.315 107.669V37.167H996.831V107.669H982.315Z" fill="white"/>
<path d="M863.447 107.669V37.167H877.962V94.9168H909.895V107.669H863.447Z" fill="white"/>
<path d="M754.194 108.603C733.872 108.603 717.698 93.2584 717.698 72.4187C717.698 51.579 733.872 36.2344 754.194 36.2344C774.515 36.2344 790.689 51.579 790.689 72.4187C790.689 93.2584 774.515 108.603 754.194 108.603ZM754.194 95.643C767.05 95.643 775.759 85.5861 775.759 72.4187C775.759 59.2513 767.05 49.1944 754.194 49.1944C741.337 49.1944 732.628 59.2513 732.628 72.4187C732.628 85.5861 741.337 95.643 754.194 95.643Z" fill="white"/>
<path d="M597.374 107.669V37.167H616.866C636.565 37.167 648.385 47.4313 648.385 64.4348C648.385 81.4384 636.461 91.599 616.866 91.599H611.889V107.669H597.374ZM611.889 78.8463H616.451C628.271 78.8463 633.455 74.0771 633.455 64.4348C633.455 54.6889 628.063 49.9196 616.451 49.9196H611.889V78.8463Z" fill="white"/>
<path d="M487.723 108.499C467.713 108.499 451.539 93.6729 451.539 72.4185C451.539 51.1641 467.713 36.3379 487.723 36.3379C507.837 36.3379 524.011 51.1641 524.011 72.4185C524.011 93.6729 507.837 108.499 487.723 108.499ZM487.723 101.76C504.209 101.76 516.235 89.2147 516.235 72.4185C516.235 55.6224 504.209 43.0771 487.723 43.0771C471.342 43.0771 459.315 55.6224 459.315 72.4185C459.315 89.2147 471.342 101.76 487.723 101.76Z" fill="white"/>
<path d="M363.759 86.0003L379.103 107.669H370.29L356.708 88.3849C354.324 88.7996 351.732 89.007 349.243 89.007H340.845V107.669H333.38V37.167H349.243C368.528 37.167 378.481 47.9497 378.481 63.1907C378.481 73.766 373.505 82.0604 363.759 86.0003ZM340.845 82.4752H348.829C364.795 82.4752 370.705 74.2844 370.705 63.1907C370.705 52.0969 364.692 43.8025 348.829 43.8025H340.845V82.4752Z" fill="white"/>
<path d="M212.393 107.669V37.167H228.359C247.644 37.167 257.493 47.846 257.493 63.7091C257.493 79.2611 247.644 90.1475 228.359 90.1475H219.858V107.669H212.393ZM219.858 83.6156H227.945C243.808 83.6156 249.717 75.3212 249.717 63.7091C249.717 52.0969 243.808 43.8025 227.945 43.8025H219.858V83.6156Z" fill="white"/>
</svg>
