<svg width="1117" height="145" viewBox="0 0 1117 145" fill="none" xmlns="http://www.w3.org/2000/svg">
<path d="M38.1133 57.3909V87.4172L62.1963 101.322L86.2793 87.4172V57.3909L62.1963 43.4856L38.1133 57.3909ZM96.2793 89.1496C96.2793 91.6504 94.945 93.9617 92.7793 95.2121L65.6963 110.848C63.5305 112.098 60.8621 112.098 58.6963 110.848L38.1133 98.9641V121.95L62.0703 134.415L114.393 104.207V40.5998L62.1963 10.4631L10 40.5998V71.1858L28.1133 81.6438V55.6584C28.1133 53.1576 29.4476 50.8464 31.6133 49.5959L58.6963 33.9602L58.9004 33.8469C60.9596 32.7476 63.433 32.7476 65.4922 33.8469L65.6963 33.9602L92.7793 49.5959C94.945 50.8464 96.2793 53.1576 96.2793 55.6584V89.1496ZM124.393 105.941C124.393 108.441 123.058 110.752 120.893 112.002L65.6465 143.899C63.5754 145.094 61.0366 145.151 58.915 144.047L31.8828 129.982C29.5667 128.777 28.1133 126.383 28.1133 123.772V93.1907L3.5 78.9807C1.3342 77.7303 1.35674e-05 75.419 0 72.9182V38.8674C8.41132e-05 36.3667 1.33436 34.0563 3.5 32.8059L58.6963 0.937728L58.9004 0.824447C60.9596 -0.274814 63.433 -0.274817 65.4922 0.824447L65.6963 0.937728L120.893 32.8059C123.058 34.0563 124.392 36.3667 124.393 38.8674V105.941Z" fill="black"/>
<path d="M1092.53 108.603C1079.05 108.603 1070.35 102.175 1066.09 93.7766L1077.91 86.9337C1081.02 92.014 1085.07 95.7465 1092.22 95.7465C1098.24 95.7465 1102.07 92.7398 1102.07 88.5926C1102.07 83.616 1098.13 81.8534 1091.5 78.9504L1087.87 77.3952C1077.4 72.9369 1070.45 67.3382 1070.45 55.5187C1070.45 44.6323 1078.74 36.3379 1091.7 36.3379C1100.93 36.3379 1107.57 39.552 1112.34 47.95L1101.03 55.2076C1098.55 50.7494 1095.85 48.9868 1091.7 48.9868C1087.45 48.9868 1084.76 51.6825 1084.76 55.2076C1084.76 59.5622 1087.45 61.3248 1093.67 64.0204L1097.3 65.5757C1109.64 70.8633 1116.59 76.2547 1116.59 88.3853C1116.59 101.449 1106.32 108.603 1092.53 108.603Z" fill="black"/>
<path d="M982.315 107.67V37.168H996.831V107.67H982.315Z" fill="black"/>
<path d="M863.447 107.67V37.168H877.962V94.9177H909.895V107.67H863.447Z" fill="black"/>
<path d="M754.194 108.603C733.872 108.603 717.698 93.2584 717.698 72.4187C717.698 51.579 733.872 36.2344 754.194 36.2344C774.515 36.2344 790.689 51.579 790.689 72.4187C790.689 93.2584 774.515 108.603 754.194 108.603ZM754.194 95.643C767.05 95.643 775.759 85.5861 775.759 72.4187C775.759 59.2513 767.05 49.1944 754.194 49.1944C741.337 49.1944 732.628 59.2513 732.628 72.4187C732.628 85.5861 741.337 95.643 754.194 95.643Z" fill="black"/>
<path d="M597.374 107.67V37.168H616.866C636.565 37.168 648.385 47.4323 648.385 64.4358C648.385 81.4393 636.461 91.6 616.866 91.6H611.889V107.67H597.374ZM611.889 78.8473H616.451C628.271 78.8473 633.455 74.078 633.455 64.4358C633.455 54.6899 628.063 49.9206 616.451 49.9206H611.889V78.8473Z" fill="black"/>
<path d="M487.723 108.499C467.713 108.499 451.539 93.6729 451.539 72.4185C451.539 51.1641 467.713 36.3379 487.723 36.3379C507.837 36.3379 524.011 51.1641 524.011 72.4185C524.011 93.6729 507.837 108.499 487.723 108.499ZM487.723 101.76C504.209 101.76 516.235 89.2147 516.235 72.4185C516.235 55.6224 504.209 43.0771 487.723 43.0771C471.342 43.0771 459.315 55.6224 459.315 72.4185C459.315 89.2147 471.342 101.76 487.723 101.76Z" fill="black"/>
<path d="M363.759 86.0012L379.103 107.67H370.29L356.708 88.3859C354.324 88.8006 351.732 89.008 349.243 89.008H340.845V107.67H333.38V37.168H349.243C368.528 37.168 378.481 47.9507 378.481 63.1916C378.481 73.767 373.505 82.0614 363.759 86.0012ZM340.845 82.4761H348.829C364.795 82.4761 370.705 74.2854 370.705 63.1916C370.705 52.0979 364.692 43.8035 348.829 43.8035H340.845V82.4761Z" fill="black"/>
<path d="M212.393 107.67V37.168H228.359C247.644 37.168 257.493 47.847 257.493 63.71C257.493 79.262 247.644 90.1484 228.359 90.1484H219.858V107.67H212.393ZM219.858 83.6166H227.945C243.808 83.6166 249.717 75.3222 249.717 63.71C249.717 52.0979 243.808 43.8035 227.945 43.8035H219.858V83.6166Z" fill="black"/>
</svg>
