<svg width="125" height="145" viewBox="0 0 124.393 145" fill="none" xmlns="http://www.w3.org/2000/svg">
<path d="M38.1133 57.3909V87.4172L62.1963 101.322L86.2793 87.4172V57.3909L62.1963 43.4856L38.1133 57.3909ZM96.2793 89.1496C96.2793 91.6504 94.945 93.9617 92.7793 95.2121L65.6963 110.848C63.5305 112.098 60.8621 112.098 58.6963 110.848L38.1133 98.9641V121.95L62.0703 134.415L114.393 104.207V40.5998L62.1963 10.4631L10 40.5998V71.1858L28.1133 81.6438V55.6584C28.1133 53.1576 29.4476 50.8464 31.6133 49.5959L58.6963 33.9602L58.9004 33.8469C60.9596 32.7476 63.433 32.7476 65.4922 33.8469L65.6963 33.9602L92.7793 49.5959C94.945 50.8464 96.2793 53.1576 96.2793 55.6584V89.1496ZM124.393 105.941C124.393 108.441 123.058 110.752 120.893 112.002L65.6465 143.899C63.5754 145.094 61.0366 145.151 58.915 144.047L31.8828 129.982C29.5667 128.777 28.1133 126.383 28.1133 123.772V93.1907L3.5 78.9807C1.3342 77.7303 1.35674e-05 75.419 0 72.9182V38.8674C8.41132e-05 36.3667 1.33436 34.0563 3.5 32.8059L58.6963 0.937728L58.9004 0.824447C60.9596 -0.274814 63.433 -0.274817 65.4922 0.824447L65.6963 0.937728L120.893 32.8059C123.058 34.0563 124.392 36.3667 124.393 38.8674V105.941Z" fill="white"/>
</svg>
